# xmcd CD database file
#
# Track frame offsets:
#	150
#	4525
#	43170
#	75487
#	113830
#	153542
#	195505
#	232502
#	276667
#	314405
#
# Disc length: 4556 seconds
#
# Revision: 3
# Processed by: cddbd v1.5.1PL2 Copyright (c) Steve Scherf et al.
# Submitted via: CDex 1.51
#
DISCID=7611ca0a
DTITLE=Oscar Peterson - A Night in Vienna
DYEAR=2004
DGENRE=Jazz
TTITLE0=Intro
TTITLE1=Nighttime
TTITLE2=When Summer Comes
TTITLE3=Cakewalk
TTITLE4=Requiem
TTITLE5=Wheatland
TTITLE6=The Backyard Blues
TTITLE7=Satin Doll
TTITLE8=Sweet Georgia Brown
TTITLE9=Hymn to Freedom
EXTD=YEAR: 2004
EXTT0=
EXTT1=
EXTT2=
EXTT3=
EXTT4=
EXTT5=
EXTT6=
EXTT7=
EXTT8=
EXTT9=
PLAYORDER=
